<svg width="10" height="10" viewBox="0 0 10 10" fill="none" xmlns="http://www.w3.org/2000/svg">
<g clip-path="url(#clip0_12_252)">
<path d="M3.57143 8.74283L0.357147 9.64283L1.25715 6.42856L7.14286 0.571417C7.20936 0.503384 7.28886 0.449328 7.3765 0.412423C7.46422 0.375517 7.55843 0.356506 7.65358 0.356506C7.74872 0.356506 7.84293 0.375517 7.93065 0.412423C8.01829 0.449328 8.09779 0.503384 8.16429 0.571417L9.42858 1.84284C9.4955 1.90924 9.54865 1.98825 9.58493 2.07529C9.62122 2.16233 9.63986 2.25569 9.63986 2.34999C9.63986 2.44428 9.62122 2.53764 9.58493 2.62469C9.54865 2.71173 9.4955 2.79073 9.42858 2.85713L3.57143 8.74283Z" stroke="black" stroke-linecap="round" stroke-linejoin="round"/>
</g>
<defs>
<clipPath id="clip0_12_252">
<rect width="10" height="10" fill="white"/>
</clipPath>
</defs>
</svg>
